<?xml version="1.0" encoding="UTF-8" standalone="no"?>
<svg
   xmlns:dc="http://purl.org/dc/elements/1.1/"
   xmlns:cc="http://creativecommons.org/ns#"
   xmlns:rdf="http://www.w3.org/1999/02/22-rdf-syntax-ns#"
   xmlns:svg="http://www.w3.org/2000/svg"
   xmlns="http://www.w3.org/2000/svg"
   xmlns:xlink="http://www.w3.org/1999/xlink"
   xmlns:sodipodi="http://sodipodi.sourceforge.net/DTD/sodipodi-0.dtd"
   xmlns:inkscape="http://www.inkscape.org/namespaces/inkscape"
   width="2300"
   height="883.60718"
   id="svg3796"
   version="1.1"
   inkscape:version="0.91 r13725"
   sodipodi:docname="TT.svg">
  <metadata
     id="metadata4216">
    <rdf:RDF>
      <cc:Work
         rdf:about="">
        <dc:format>image/svg+xml</dc:format>
        <dc:type
           rdf:resource="http://purl.org/dc/dcmitype/StillImage" />
        <dc:title></dc:title>
      </cc:Work>
    </rdf:RDF>
  </metadata>
  <defs
     id="defs4214">
    <inkscape:perspective
       sodipodi:type="inkscape:persp3d"
       inkscape:vp_x="0 : 680 : 1"
       inkscape:vp_y="0 : 1000 : 0"
       inkscape:vp_z="1760 : 680 : 1"
       inkscape:persp3d-origin="880 : 453.33333 : 1"
       id="perspective4226" />
  </defs>
  <sodipodi:namedview
     pagecolor="#ffffff"
     bordercolor="#666666"
     borderopacity="1"
     objecttolerance="10"
     gridtolerance="10"
     guidetolerance="10"
     inkscape:pageopacity="0"
     inkscape:pageshadow="2"
     inkscape:window-width="1280"
     inkscape:window-height="707"
     id="namedview4212"
     showgrid="false"
     inkscape:zoom="0.29417826"
     inkscape:cx="630.16271"
     inkscape:cy="305.83162"
     inkscape:window-x="0"
     inkscape:window-y="1"
     inkscape:window-maximized="1"
     inkscape:current-layer="svg3796"
     fit-margin-top="0"
     fit-margin-left="0"
     fit-margin-right="0"
     fit-margin-bottom="0"
     inkscape:snap-global="true"
     inkscape:snap-grids="false" />
  <g
     id="g3798"
     transform="translate(429.82819,5.6071663)">
    <path
       d="m 493.44,576.62 75.5,0 0,76.32 -75.5,0 z"
       id="path3800"
       inkscape:connector-curvature="0"
       style="fill:#ffffff;fill-opacity:0.7;stroke:#000000;stroke-width:2" />
    <use
       xlink:href="#a"
       transform="translate(531.44186,308.52434)"
       id="use3802"
       x="0"
       y="0"
       width="100%"
       height="100%" />
    <path
       d="m 568.93,576.62 75.5,0 0,76.32 -75.5,0 z"
       id="path3804"
       inkscape:connector-curvature="0"
       style="fill:#ffffff;fill-opacity:0.7;stroke:#000000;stroke-width:2" />
    <use
       xlink:href="#a"
       transform="translate(606.93023,308.52434)"
       id="use3806"
       x="0"
       y="0"
       width="100%"
       height="100%" />
    <path
       d="m 644.42,576.62 75.5,0 0,76.32 -75.5,0 z"
       id="path3808"
       inkscape:connector-curvature="0"
       style="fill:#ffffff;fill-opacity:0.7;stroke:#000000;stroke-width:2" />
    <use
       xlink:href="#a"
       transform="translate(682.4186,308.52434)"
       id="use3810"
       x="0"
       y="0"
       width="100%"
       height="100%" />
    <path
       d="m 870.88,500.3 75.5,0 0,76.32 -75.5,0 z"
       id="path3812"
       inkscape:connector-curvature="0"
       style="fill:#ffffff;fill-opacity:0.7;stroke:#000000;stroke-width:2" />
    <use
       xlink:href="#a"
       transform="translate(908.88372,232.21217)"
       id="use3814"
       x="0"
       y="0"
       width="100%"
       height="100%" />
    <path
       d="m 946.37,500.3 75.5,0 0,76.32 -75.5,0 z"
       id="path3816"
       inkscape:connector-curvature="0"
       style="fill:#ffffff;fill-opacity:0.7;stroke:#000000;stroke-width:2" />
    <use
       xlink:href="#a"
       transform="translate(984.3721,232.21217)"
       id="use3818"
       x="0"
       y="0"
       width="100%"
       height="100%" />
    <path
       d="m 1021.86,500.3 75.5,0 0,76.32 -75.5,0 z"
       id="path3820"
       inkscape:connector-curvature="0"
       style="fill:#ffffff;fill-opacity:0.7;stroke:#000000;stroke-width:2" />
    <use
       xlink:href="#a"
       transform="translate(1059.8605,232.21217)"
       id="use3822"
       x="0"
       y="0"
       width="100%"
       height="100%" />
    <path
       d="m 870.88,576.62 75.5,0 0,76.32 -75.5,0 z"
       id="path3824"
       inkscape:connector-curvature="0"
       style="fill:#ffffff;fill-opacity:0.7;stroke:#000000;stroke-width:2" />
    <use
       xlink:href="#a"
       transform="translate(908.88372,308.52434)"
       id="use3826"
       x="0"
       y="0"
       width="100%"
       height="100%" />
    <path
       d="m 946.37,576.62 75.5,0 0,76.32 -75.5,0 z"
       id="path3828"
       inkscape:connector-curvature="0"
       style="fill:#ffffff;fill-opacity:0.7;stroke:#000000;stroke-width:2" />
    <use
       xlink:href="#a"
       transform="translate(984.3721,308.52434)"
       id="use3830"
       x="0"
       y="0"
       width="100%"
       height="100%" />
    <path
       d="m 1021.86,576.62 75.5,0 0,76.32 -75.5,0 z"
       id="path3832"
       inkscape:connector-curvature="0"
       style="fill:#ffffff;fill-opacity:0.7;stroke:#000000;stroke-width:2" />
    <use
       xlink:href="#a"
       transform="translate(1059.8605,308.52434)"
       id="use3834"
       x="0"
       y="0"
       width="100%"
       height="100%" />
    <path
       d="m 870.88,652.94 75.5,0 0,76.3 -75.5,0 z"
       id="path3836"
       inkscape:connector-curvature="0"
       style="fill:#ffffff;fill-opacity:0.7;stroke:#000000;stroke-width:2" />
    <use
       xlink:href="#a"
       transform="translate(908.88372,384.83651)"
       id="use3838"
       x="0"
       y="0"
       width="100%"
       height="100%" />
    <path
       d="m 946.37,652.94 75.5,0 0,76.3 -75.5,0 z"
       id="path3840"
       inkscape:connector-curvature="0"
       style="fill:#ffffff;fill-opacity:0.7;stroke:#000000;stroke-width:2" />
    <use
       xlink:href="#a"
       transform="translate(984.3721,384.83651)"
       id="use3842"
       x="0"
       y="0"
       width="100%"
       height="100%" />
    <path
       d="m 1021.86,652.94 75.5,0 0,76.3 -75.5,0 z"
       id="path3844"
       inkscape:connector-curvature="0"
       style="fill:#ffffff;fill-opacity:0.7;stroke:#000000;stroke-width:2" />
    <use
       xlink:href="#a"
       transform="translate(1059.8605,384.83651)"
       id="use3846"
       x="0"
       y="0"
       width="100%"
       height="100%" />
    <path
       d="m 889.76,519.4 75.48,0 0,76.3 -75.48,0 z"
       id="path3848"
       inkscape:connector-curvature="0"
       style="fill:#ffffff;fill-opacity:0.7;stroke:#000000;stroke-width:2" />
    <use
       xlink:href="#a"
       transform="translate(927.75581,251.29021)"
       id="use3850"
       x="0"
       y="0"
       width="100%"
       height="100%" />
    <path
       d="m 965.24,519.4 75.5,0 0,76.3 -75.5,0 z"
       id="path3852"
       inkscape:connector-curvature="0"
       style="fill:#ffffff;fill-opacity:0.7;stroke:#000000;stroke-width:2" />
    <use
       xlink:href="#a"
       transform="translate(1003.2442,251.29021)"
       id="use3854"
       x="0"
       y="0"
       width="100%"
       height="100%" />
    <path
       d="m 1040.73,519.4 75.5,0 0,76.3 -75.5,0 z"
       id="path3856"
       inkscape:connector-curvature="0"
       style="fill:#ffffff;fill-opacity:0.7;stroke:#000000;stroke-width:2" />
    <use
       xlink:href="#a"
       transform="translate(1078.7326,251.29021)"
       id="use3858"
       x="0"
       y="0"
       width="100%"
       height="100%" />
    <path
       d="m 889.76,595.7 75.48,0 0,76.3 -75.48,0 z"
       id="path3860"
       inkscape:connector-curvature="0"
       style="fill:#ffffff;fill-opacity:0.7;stroke:#000000;stroke-width:2" />
    <use
       xlink:href="#a"
       transform="translate(927.75581,327.60238)"
       id="use3862"
       x="0"
       y="0"
       width="100%"
       height="100%" />
    <path
       d="m 965.24,595.7 75.5,0 0,76.3 -75.5,0 z"
       id="path3864"
       inkscape:connector-curvature="0"
       style="fill:#ffffff;fill-opacity:0.7;stroke:#000000;stroke-width:2" />
    <use
       xlink:href="#a"
       transform="translate(1003.2442,327.60238)"
       id="use3866"
       x="0"
       y="0"
       width="100%"
       height="100%" />
    <path
       d="m 1040.73,595.7 75.5,0 0,76.3 -75.5,0 z"
       id="path3868"
       inkscape:connector-curvature="0"
       style="fill:#ffffff;fill-opacity:0.7;stroke:#000000;stroke-width:2" />
    <use
       xlink:href="#a"
       transform="translate(1078.7326,327.60238)"
       id="use3870"
       x="0"
       y="0"
       width="100%"
       height="100%" />
    <path
       d="m 889.76,672 75.48,0 0,76.33 -75.48,0 z"
       id="path3872"
       inkscape:connector-curvature="0"
       style="fill:#ffffff;fill-opacity:0.7;stroke:#000000;stroke-width:2" />
    <use
       xlink:href="#a"
       transform="translate(927.75581,403.91455)"
       id="use3874"
       x="0"
       y="0"
       width="100%"
       height="100%" />
    <path
       d="m 965.24,672 75.5,0 0,76.33 -75.5,0 z"
       id="path3876"
       inkscape:connector-curvature="0"
       style="fill:#ffffff;fill-opacity:0.7;stroke:#000000;stroke-width:2" />
    <use
       xlink:href="#a"
       transform="translate(1003.2442,403.91455)"
       id="use3878"
       x="0"
       y="0"
       width="100%"
       height="100%" />
    <path
       d="m 1040.73,672 75.5,0 0,76.33 -75.5,0 z"
       id="path3880"
       inkscape:connector-curvature="0"
       style="fill:#ffffff;fill-opacity:0.7;stroke:#000000;stroke-width:2" />
    <use
       xlink:href="#a"
       transform="translate(1078.7326,403.91455)"
       id="use3882"
       x="0"
       y="0"
       width="100%"
       height="100%" />
    <path
       d="m 908.63,538.47 75.5,0 0,76.3 -75.5,0 z"
       id="path3884"
       inkscape:connector-curvature="0"
       style="fill:#ffffff;fill-opacity:0.7;stroke:#000000;stroke-width:2" />
    <use
       xlink:href="#a"
       transform="translate(946.6279,270.36825)"
       id="use3886"
       x="0"
       y="0"
       width="100%"
       height="100%" />
    <path
       d="m 984.12,538.47 75.48,0 0,76.3 -75.48,0 z"
       id="path3888"
       inkscape:connector-curvature="0"
       style="fill:#ffffff;fill-opacity:0.7;stroke:#000000;stroke-width:2" />
    <use
       xlink:href="#a"
       transform="translate(1022.1163,270.36825)"
       id="use3890"
       x="0"
       y="0"
       width="100%"
       height="100%" />
    <path
       d="m 1059.6,538.47 75.5,0 0,76.3 -75.5,0 z"
       id="path3892"
       inkscape:connector-curvature="0"
       style="fill:#ffffff;fill-opacity:0.7;stroke:#000000;stroke-width:2" />
    <use
       xlink:href="#a"
       transform="translate(1097.6047,270.36825)"
       id="use3894"
       x="0"
       y="0"
       width="100%"
       height="100%" />
    <path
       d="m 908.63,614.78 75.5,0 0,76.3 -75.5,0 z"
       id="path3896"
       inkscape:connector-curvature="0"
       style="fill:#ffffff;fill-opacity:0.7;stroke:#000000;stroke-width:2" />
    <use
       xlink:href="#a"
       transform="translate(946.6279,346.68042)"
       id="use3898"
       x="0"
       y="0"
       width="100%"
       height="100%" />
    <path
       d="m 984.12,614.78 75.48,0 0,76.3 -75.48,0 z"
       id="path3900"
       inkscape:connector-curvature="0"
       style="fill:#ffffff;fill-opacity:0.7;stroke:#000000;stroke-width:2" />
    <use
       xlink:href="#a"
       transform="translate(1022.1163,346.68042)"
       id="use3902"
       x="0"
       y="0"
       width="100%"
       height="100%" />
    <path
       d="m 1059.6,614.78 75.5,0 0,76.3 -75.5,0 z"
       id="path3904"
       inkscape:connector-curvature="0"
       style="fill:#ffffff;fill-opacity:0.7;stroke:#000000;stroke-width:2" />
    <use
       xlink:href="#a"
       transform="translate(1097.6047,346.68042)"
       id="use3906"
       x="0"
       y="0"
       width="100%"
       height="100%" />
    <path
       d="m 908.63,691.1 75.5,0 0,76.3 -75.5,0 z"
       id="path3908"
       inkscape:connector-curvature="0"
       style="fill:#ffffff;fill-opacity:0.7;stroke:#000000;stroke-width:2" />
    <use
       xlink:href="#a"
       transform="translate(946.6279,422.99259)"
       id="use3910"
       x="0"
       y="0"
       width="100%"
       height="100%" />
    <path
       d="m 984.12,691.1 75.48,0 0,76.3 -75.48,0 z"
       id="path3912"
       inkscape:connector-curvature="0"
       style="fill:#ffffff;fill-opacity:0.7;stroke:#000000;stroke-width:2" />
    <use
       xlink:href="#a"
       transform="translate(1022.1163,422.99259)"
       id="use3914"
       x="0"
       y="0"
       width="100%"
       height="100%" />
    <path
       d="m 1059.6,691.1 75.5,0 0,76.3 -75.5,0 z"
       id="path3916"
       inkscape:connector-curvature="0"
       style="fill:#ffffff;fill-opacity:0.7;stroke:#000000;stroke-width:2" />
    <use
       xlink:href="#a"
       transform="translate(1097.6047,422.99259)"
       id="use3918"
       x="0"
       y="0"
       width="100%"
       height="100%" />
    <path
       d="m 927.5,557.55 75.5,0 0,76.3 -75.5,0 z"
       id="path3920"
       inkscape:connector-curvature="0"
       style="fill:#21c9cb;fill-opacity:1;stroke:#000000;stroke-width:2" />
    <use
       xlink:href="#a"
       transform="translate(965.5,289.4463)"
       id="use3922"
       x="0"
       y="0"
       width="100%"
       height="100%" />
    <path
       d="m 1003,557.55 75.48,0 0,76.3 -75.5,0 z"
       id="path3924"
       inkscape:connector-curvature="0"
       style="fill:#21c9cb;fill-opacity:1;stroke:#000000;stroke-width:2" />
    <use
       xlink:href="#a"
       transform="translate(1040.9884,289.4463)"
       id="use3926"
       x="0"
       y="0"
       width="100%"
       height="100%" />
    <path
       d="m 1078.48,557.55 75.5,0 0,76.3 -75.5,0 z"
       id="path3928"
       inkscape:connector-curvature="0"
       style="fill:#21c9cb;fill-opacity:1;stroke:#000000;stroke-width:2;stroke-opacity:1" />
    <use
       xlink:href="#a"
       transform="translate(1116.4767,289.4463)"
       id="use3930"
       x="0"
       y="0"
       width="100%"
       height="100%" />
    <path
       d="m 927.5,633.86 75.5,0 0,76.3 -75.5,0 z"
       id="path3932"
       inkscape:connector-curvature="0"
       style="fill:#21c9cb;fill-opacity:1;stroke:#000000;stroke-width:2" />
    <use
       xlink:href="#a"
       transform="translate(965.5,365.75846)"
       id="use3934"
       x="0"
       y="0"
       width="100%"
       height="100%" />
    <path
       d="m 1003,710.16 75.48,0 0,-76.3 -75.5,0 z"
       id="path3936"
       inkscape:connector-curvature="0"
       style="fill:#21c9cb;fill-opacity:1;stroke:#000000;stroke-width:2" />
    <use
       xlink:href="#a"
       transform="translate(1040.9884,365.75846)"
       id="use3938"
       x="0"
       y="0"
       width="100%"
       height="100%" />
    <path
       d="m 1078.48,633.86 75.5,0 0,76.3 -75.5,0 z"
       id="path3940"
       inkscape:connector-curvature="0"
       style="fill:#21c9cb;fill-opacity:1;stroke:#000000;stroke-width:2" />
    <use
       xlink:href="#a"
       transform="translate(1116.4767,365.75846)"
       id="use3942"
       x="0"
       y="0"
       width="100%"
       height="100%" />
    <path
       d="m 927.5,710.17 75.5,0 0,76.3 -75.5,0 z"
       id="path3944"
       inkscape:connector-curvature="0"
       style="fill:#21c9cb;fill-opacity:1;stroke:#000000;stroke-width:2" />
    <use
       xlink:href="#a"
       transform="translate(965.5,442.07063)"
       id="use3946"
       x="0"
       y="0"
       width="100%"
       height="100%" />
    <path
       d="m 1003,710.17 75.48,0 0,76.3 -75.5,0 z"
       id="path3948"
       inkscape:connector-curvature="0"
       style="fill:#21c9cb;fill-opacity:1;stroke:#000000;stroke-width:2" />
    <use
       xlink:href="#a"
       transform="translate(1040.9884,442.07063)"
       id="use3950"
       x="0"
       y="0"
       width="100%"
       height="100%" />
    <path
       d="m 1078.48,710.17 75.5,0 0,76.3 -75.5,0 z"
       id="path3952"
       inkscape:connector-curvature="0"
       style="fill:#21c9cb;fill-opacity:1;stroke:#000000;stroke-width:2" />
    <use
       xlink:href="#a"
       transform="translate(1116.4767,442.07063)"
       id="use3954"
       x="0"
       y="0"
       width="100%"
       height="100%" />
    <path
       d="m 1248.33,500.3 75.48,0 0,76.32 -75.47,0 z"
       id="path3956"
       inkscape:connector-curvature="0"
       style="fill:#ffffff;fill-opacity:0.7;stroke:#000000;stroke-width:2" />
    <use
       xlink:href="#a"
       transform="translate(1286.3256,232.21217)"
       id="use3958"
       x="0"
       y="0"
       width="100%"
       height="100%" />
    <path
       d="m 1323.8,500.3 75.5,0 0,76.32 -75.5,0 z"
       id="path3960"
       inkscape:connector-curvature="0"
       style="fill:#ffffff;fill-opacity:0.7;stroke:#000000;stroke-width:2" />
    <use
       xlink:href="#a"
       transform="translate(1361.814,232.21217)"
       id="use3962"
       x="0"
       y="0"
       width="100%"
       height="100%" />
    <path
       d="m 1399.3,500.3 75.5,0 0,76.32 -75.5,0 z"
       id="path3964"
       inkscape:connector-curvature="0"
       style="fill:#ffffff;fill-opacity:0.7;stroke:#000000;stroke-width:2" />
    <use
       xlink:href="#a"
       transform="translate(1437.3023,232.21217)"
       id="use3966"
       x="0"
       y="0"
       width="100%"
       height="100%" />
    <path
       d="m 1248.33,576.62 75.48,0 0,76.32 -75.47,0 z"
       id="path3968"
       inkscape:connector-curvature="0"
       style="fill:#ffffff;fill-opacity:0.7;stroke:#000000;stroke-width:2" />
    <use
       xlink:href="#a"
       transform="translate(1286.3256,308.52434)"
       id="use3970"
       x="0"
       y="0"
       width="100%"
       height="100%" />
    <path
       d="m 1323.8,576.62 75.5,0 0,76.32 -75.5,0 z"
       id="path3972"
       inkscape:connector-curvature="0"
       style="fill:#ffffff;fill-opacity:0.7;stroke:#000000;stroke-width:2" />
    <use
       xlink:href="#a"
       transform="translate(1361.814,308.52434)"
       id="use3974"
       x="0"
       y="0"
       width="100%"
       height="100%" />
    <path
       d="m 1399.3,576.62 75.5,0 0,76.32 -75.5,0 z"
       id="path3976"
       inkscape:connector-curvature="0"
       style="fill:#ffffff;fill-opacity:0.7;stroke:#000000;stroke-width:2" />
    <use
       xlink:href="#a"
       transform="translate(1437.3023,308.52434)"
       id="use3978"
       x="0"
       y="0"
       width="100%"
       height="100%" />
    <path
       d="m 1248.33,652.94 75.48,0 0,76.3 -75.47,0 z"
       id="path3980"
       inkscape:connector-curvature="0"
       style="fill:#ffffff;fill-opacity:0.7;stroke:#000000;stroke-width:2" />
    <use
       xlink:href="#a"
       transform="translate(1286.3256,384.83651)"
       id="use3982"
       x="0"
       y="0"
       width="100%"
       height="100%" />
    <path
       d="m 1323.8,652.94 75.5,0 0,76.3 -75.5,0 z"
       id="path3984"
       inkscape:connector-curvature="0"
       style="fill:#ffffff;fill-opacity:0.7;stroke:#000000;stroke-width:2" />
    <use
       xlink:href="#a"
       transform="translate(1361.814,384.83651)"
       id="use3986"
       x="0"
       y="0"
       width="100%"
       height="100%" />
    <path
       d="m 1399.3,652.94 75.5,0 0,76.3 -75.5,0 z"
       id="path3988"
       inkscape:connector-curvature="0"
       style="fill:#ffffff;fill-opacity:0.7;stroke:#000000;stroke-width:2" />
    <use
       xlink:href="#a"
       transform="translate(1437.3023,384.83651)"
       id="use3990"
       x="0"
       y="0"
       width="100%"
       height="100%" />
    <path
       d="m 1267.2,519.4 75.5,0 0,76.3 -75.5,0 z"
       id="path3992"
       inkscape:connector-curvature="0"
       style="fill:#21c9cb;fill-opacity:1;stroke:#000000;stroke-width:2" />
    <use
       xlink:href="#a"
       transform="translate(1305.1977,251.29021)"
       id="use3994"
       x="0"
       y="0"
       width="100%"
       height="100%" />
    <path
       d="m 1342.7,519.4 75.47,0 0,76.3 -75.48,0 z"
       id="path3996"
       inkscape:connector-curvature="0"
       style="fill:#21c9cb;fill-opacity:1;stroke:#000000;stroke-width:2" />
    <use
       xlink:href="#a"
       transform="translate(1380.686,251.29021)"
       id="use3998"
       x="0"
       y="0"
       width="100%"
       height="100%" />
    <path
       d="m 1418.17,519.4 75.5,0 0,76.3 -75.5,0 z"
       id="path4000"
       inkscape:connector-curvature="0"
       style="fill:#21c9cb;fill-opacity:1;stroke:#000000;stroke-width:2" />
    <use
       xlink:href="#a"
       transform="translate(1456.1744,251.29021)"
       id="use4002"
       x="0"
       y="0"
       width="100%"
       height="100%" />
    <path
       d="m 1267.2,595.7 75.5,0 0,76.3 -75.5,0 z"
       id="path4004"
       inkscape:connector-curvature="0"
       style="fill:#21c9cb;fill-opacity:1;stroke:#000000;stroke-width:2" />
    <use
       xlink:href="#a"
       transform="translate(1305.1977,327.60238)"
       id="use4006"
       x="0"
       y="0"
       width="100%"
       height="100%" />
    <path
       d="m 1342.7,595.7 75.47,0 0,76.3 -75.48,0 z"
       id="path4008"
       inkscape:connector-curvature="0"
       style="fill:#21c9cb;fill-opacity:1;stroke:#000000;stroke-width:2" />
    <use
       xlink:href="#a"
       transform="translate(1380.686,327.60238)"
       id="use4010"
       x="0"
       y="0"
       width="100%"
       height="100%" />
    <path
       d="m 1418.17,595.7 75.5,0 0,76.3 -75.5,0 z"
       id="path4012"
       inkscape:connector-curvature="0"
       style="fill:#21c9cb;fill-opacity:1;stroke:#000000;stroke-width:2" />
    <use
       xlink:href="#a"
       transform="translate(1456.1744,327.60238)"
       id="use4014"
       x="0"
       y="0"
       width="100%"
       height="100%" />
    <path
       d="m 1267.2,672 75.5,0 0,76.33 -75.5,0 z"
       id="path4016"
       inkscape:connector-curvature="0"
       style="fill:#21c9cb;fill-opacity:1;stroke:#000000;stroke-width:2" />
    <use
       xlink:href="#a"
       transform="translate(1305.1977,403.91455)"
       id="use4018"
       x="0"
       y="0"
       width="100%"
       height="100%" />
    <path
       d="m 1342.7,672 75.47,0 0,76.33 -75.48,0 z"
       id="path4020"
       inkscape:connector-curvature="0"
       style="fill:#21c9cb;fill-opacity:1;stroke:#000000;stroke-width:2" />
    <use
       xlink:href="#a"
       transform="translate(1380.686,403.91455)"
       id="use4022"
       x="0"
       y="0"
       width="100%"
       height="100%" />
    <path
       d="m 1418.17,672 75.5,0 0,76.33 -75.5,0 z"
       id="path4024"
       inkscape:connector-curvature="0"
       style="fill:#21c9cb;fill-opacity:1;stroke:#000000;stroke-width:2" />
    <use
       xlink:href="#a"
       transform="translate(1456.1744,403.91455)"
       id="use4026"
       x="0"
       y="0"
       width="100%"
       height="100%" />
    <path
       d="m 1286.07,538.47 75.5,0 0,76.3 -75.5,0 z"
       id="path4028"
       inkscape:connector-curvature="0"
       style="fill:#ffffff;fill-opacity:0.7;stroke:#000000;stroke-width:2" />
    <use
       xlink:href="#a"
       transform="translate(1324.0698,270.36825)"
       id="use4030"
       x="0"
       y="0"
       width="100%"
       height="100%" />
    <path
       d="m 1361.56,538.47 75.5,0 0,76.3 -75.5,0 z"
       id="path4032"
       inkscape:connector-curvature="0"
       style="fill:#ffffff;fill-opacity:0.7;stroke:#000000;stroke-width:2" />
    <use
       xlink:href="#a"
       transform="translate(1399.5581,270.36825)"
       id="use4034"
       x="0"
       y="0"
       width="100%"
       height="100%" />
    <path
       d="m 1437.05,538.47 75.48,0 0,76.3 -75.48,0 z"
       id="path4036"
       inkscape:connector-curvature="0"
       style="fill:#ffffff;fill-opacity:0.7;stroke:#000000;stroke-width:2" />
    <use
       xlink:href="#a"
       transform="translate(1475.0465,270.36825)"
       id="use4038"
       x="0"
       y="0"
       width="100%"
       height="100%" />
    <path
       d="m 1286.07,614.78 75.5,0 0,76.3 -75.5,0 z"
       id="path4040"
       inkscape:connector-curvature="0"
       style="fill:#ffffff;fill-opacity:0.7;stroke:#000000;stroke-width:2" />
    <use
       xlink:href="#a"
       transform="translate(1324.0698,346.68042)"
       id="use4042"
       x="0"
       y="0"
       width="100%"
       height="100%" />
    <path
       d="m 1361.56,614.78 75.5,0 0,76.3 -75.5,0 z"
       id="path4044"
       inkscape:connector-curvature="0"
       style="fill:#ffffff;fill-opacity:0.7;stroke:#000000;stroke-width:2" />
    <use
       xlink:href="#a"
       transform="translate(1399.5581,346.68042)"
       id="use4046"
       x="0"
       y="0"
       width="100%"
       height="100%" />
    <path
       d="m 1437.05,614.78 75.48,0 0,76.3 -75.48,0 z"
       id="path4048"
       inkscape:connector-curvature="0"
       style="fill:#ffffff;fill-opacity:0.7;stroke:#000000;stroke-width:2" />
    <use
       xlink:href="#a"
       transform="translate(1475.0465,346.68042)"
       id="use4050"
       x="0"
       y="0"
       width="100%"
       height="100%" />
    <path
       d="m 1286.07,691.1 75.5,0 0,76.3 -75.5,0 z"
       id="path4052"
       inkscape:connector-curvature="0"
       style="fill:#ffffff;fill-opacity:0.7;stroke:#000000;stroke-width:2" />
    <use
       xlink:href="#a"
       transform="translate(1324.0698,422.99259)"
       id="use4054"
       x="0"
       y="0"
       width="100%"
       height="100%" />
    <path
       d="m 1361.56,691.1 75.5,0 0,76.3 -75.5,0 z"
       id="path4056"
       inkscape:connector-curvature="0"
       style="fill:#ffffff;fill-opacity:0.7;stroke:#000000;stroke-width:2" />
    <use
       xlink:href="#a"
       transform="translate(1399.5581,422.99259)"
       id="use4058"
       x="0"
       y="0"
       width="100%"
       height="100%" />
    <path
       d="m 1437.05,691.1 75.48,0 0,76.3 -75.48,0 z"
       id="path4060"
       inkscape:connector-curvature="0"
       style="fill:#ffffff;fill-opacity:0.7;stroke:#000000;stroke-width:2" />
    <use
       xlink:href="#a"
       transform="translate(1475.0465,422.99259)"
       id="use4062"
       x="0"
       y="0"
       width="100%"
       height="100%" />
    <path
       d="m 1304.94,557.55 75.5,0 0,76.3 -75.5,0 z"
       id="path4064"
       inkscape:connector-curvature="0"
       style="fill:#ffffff;fill-opacity:0.7;stroke:#000000;stroke-width:2" />
    <use
       xlink:href="#a"
       transform="translate(1342.9419,289.4463)"
       id="use4066"
       x="0"
       y="0"
       width="100%"
       height="100%" />
    <path
       d="m 1380.43,557.55 75.5,0 0,76.3 -75.5,0 z"
       id="path4068"
       inkscape:connector-curvature="0"
       style="fill:#ffffff;fill-opacity:0.7;stroke:#000000;stroke-width:2" />
    <use
       xlink:href="#a"
       transform="translate(1418.4302,289.4463)"
       id="use4070"
       x="0"
       y="0"
       width="100%"
       height="100%" />
    <path
       d="m 1455.92,557.55 75.5,0 0,76.3 -75.5,0 z"
       id="path4072"
       inkscape:connector-curvature="0"
       style="fill:#ffffff;fill-opacity:0.7;stroke:#000000;stroke-width:2" />
    <use
       xlink:href="#a"
       transform="translate(1493.9186,289.4463)"
       id="use4074"
       x="0"
       y="0"
       width="100%"
       height="100%" />
    <path
       d="m 1304.94,633.86 75.5,0 0,76.3 -75.5,0 z"
       id="path4076"
       inkscape:connector-curvature="0"
       style="fill:#ffffff;fill-opacity:0.7;stroke:#000000;stroke-width:2" />
    <use
       xlink:href="#a"
       transform="translate(1342.9419,365.75846)"
       id="use4078"
       x="0"
       y="0"
       width="100%"
       height="100%" />
    <path
       d="m 1380.43,633.86 75.5,0 0,76.3 -75.5,0 z"
       id="path4080"
       inkscape:connector-curvature="0"
       style="fill:#ffffff;fill-opacity:0.7;stroke:#000000;stroke-width:2" />
    <use
       xlink:href="#a"
       transform="translate(1418.4302,365.75846)"
       id="use4082"
       x="0"
       y="0"
       width="100%"
       height="100%" />
    <path
       d="m 1455.92,633.86 75.5,0 0,76.3 -75.5,0 z"
       id="path4084"
       inkscape:connector-curvature="0"
       style="fill:#ffffff;fill-opacity:0.7;stroke:#000000;stroke-width:2" />
    <use
       xlink:href="#a"
       transform="translate(1493.9186,365.75846)"
       id="use4086"
       x="0"
       y="0"
       width="100%"
       height="100%" />
    <path
       d="m 1304.94,710.17 75.5,0 0,76.3 -75.5,0 z"
       id="path4088"
       inkscape:connector-curvature="0"
       style="fill:#ffffff;fill-opacity:0.7;stroke:#000000;stroke-width:2" />
    <use
       xlink:href="#a"
       transform="translate(1342.9419,442.07063)"
       id="use4090"
       x="0"
       y="0"
       width="100%"
       height="100%" />
    <path
       d="m 1380.43,710.17 75.5,0 0,76.3 -75.5,0 z"
       id="path4092"
       inkscape:connector-curvature="0"
       style="fill:#ffffff;fill-opacity:0.7;stroke:#000000;stroke-width:2" />
    <use
       xlink:href="#a"
       transform="translate(1418.4302,442.07063)"
       id="use4094"
       x="0"
       y="0"
       width="100%"
       height="100%" />
    <path
       d="m 1455.92,710.17 75.5,0 0,76.3 -75.5,0 z"
       id="path4096"
       inkscape:connector-curvature="0"
       style="fill:#ffffff;fill-opacity:0.7;stroke:#000000;stroke-width:2" />
    <use
       xlink:href="#a"
       transform="translate(1493.9186,442.07063)"
       id="use4098"
       x="0"
       y="0"
       width="100%"
       height="100%" />
    <path
       d="m 512.3,595.7 75.5,0 0,76.3 -75.5,0 z"
       id="path4100"
       inkscape:connector-curvature="0"
       style="fill:#21c9cb;fill-opacity:1;stroke:#000000;stroke-width:2" />
    <use
       xlink:href="#a"
       transform="translate(550.31395,327.60238)"
       id="use4102"
       x="0"
       y="0"
       width="100%"
       height="100%" />
    <path
       d="m 587.8,595.7 75.5,0 0,76.3 -75.5,0 z"
       id="path4104"
       inkscape:connector-curvature="0"
       style="fill:#21c9cb;fill-opacity:1;stroke:#000000;stroke-width:2" />
    <use
       xlink:href="#a"
       transform="translate(625.80233,327.60238)"
       id="use4106"
       x="0"
       y="0"
       width="100%"
       height="100%" />
    <path
       d="m 663.3,595.7 75.48,0 0,76.3 -75.5,0 z"
       id="path4108"
       inkscape:connector-curvature="0"
       style="fill:#21c9cb;fill-opacity:1;stroke:#000000;stroke-width:2" />
    <use
       xlink:href="#a"
       transform="translate(701.2907,327.60238)"
       id="use4110"
       x="0"
       y="0"
       width="100%"
       height="100%" />
    <path
       d="m 531.2,614.78 75.47,0 0,76.3 -75.47,0 z"
       id="path4112"
       inkscape:connector-curvature="0"
       style="fill:#ffffff;fill-opacity:0.7;stroke:#000000;stroke-width:2" />
    <use
       xlink:href="#a"
       transform="translate(569.18605,346.68042)"
       id="use4114"
       x="0"
       y="0"
       width="100%"
       height="100%" />
    <path
       d="m 606.67,614.78 75.5,0 0,76.3 -75.5,0 z"
       id="path4116"
       inkscape:connector-curvature="0"
       style="fill:#ffffff;fill-opacity:0.7;stroke:#000000;stroke-width:2" />
    <use
       xlink:href="#a"
       transform="translate(644.67442,346.68042)"
       id="use4118"
       x="0"
       y="0"
       width="100%"
       height="100%" />
    <path
       d="m 682.16,614.78 75.5,0 0,76.3 -75.5,0 z"
       id="path4120"
       inkscape:connector-curvature="0"
       style="fill:#ffffff;fill-opacity:0.7;stroke:#000000;stroke-width:2" />
    <use
       xlink:href="#a"
       transform="translate(720.16279,346.68042)"
       id="use4122"
       x="0"
       y="0"
       width="100%"
       height="100%" />
    <path
       d="m 1625.77,729.25 0,-76.3 75.5,0 0,76.3 z"
       id="path4124"
       inkscape:connector-curvature="0"
       style="fill:#ffffff;fill-opacity:0.7;stroke:#000000;stroke-width:2" />
    <use
       xlink:href="#a"
       transform="matrix(0,-1,1,0,1669.1674,378.74867)"
       id="use4126"
       x="0"
       y="0"
       width="100%"
       height="100%" />
    <path
       d="m 1625.77,652.94 0,-76.32 75.5,0 0,76.32 z"
       id="path4128"
       inkscape:connector-curvature="0"
       style="fill:#ffffff;fill-opacity:0.7;stroke:#000000;stroke-width:2" />
    <use
       xlink:href="#a"
       transform="matrix(0,-1,1,0,1669.1674,302.43651)"
       id="use4130"
       x="0"
       y="0"
       width="100%"
       height="100%" />
    <path
       d="m 1625.77,576.62 0,-76.3 75.5,0 0,76.3 z"
       id="path4132"
       inkscape:connector-curvature="0"
       style="fill:#ffffff;fill-opacity:0.7;stroke:#000000;stroke-width:2" />
    <use
       xlink:href="#a"
       transform="matrix(0,-1,1,0,1669.1674,226.12434)"
       id="use4134"
       x="0"
       y="0"
       width="100%"
       height="100%" />
    <path
       d="m 1644.64,748.33 0,-76.33 75.5,0 0,76.33 z"
       id="path4136"
       inkscape:connector-curvature="0"
       style="fill:#ffffff;fill-opacity:0.7;stroke:#000000;stroke-width:2" />
    <use
       xlink:href="#a"
       transform="matrix(0,-1,1,0,1688.0395,397.82672)"
       id="use4138"
       x="0"
       y="0"
       width="100%"
       height="100%" />
    <path
       d="m 1644.64,672 0,-76.3 75.5,0 0,76.3 z"
       id="path4140"
       inkscape:connector-curvature="0"
       style="fill:#ffffff;fill-opacity:0.7;stroke:#000000;stroke-width:2" />
    <use
       xlink:href="#a"
       transform="matrix(0,-1,1,0,1688.0395,321.51455)"
       id="use4142"
       x="0"
       y="0"
       width="100%"
       height="100%" />
    <path
       d="m 1644.64,595.7 0,-76.3 75.5,0 0,76.3 z"
       id="path4144"
       inkscape:connector-curvature="0"
       style="fill:#ffffff;fill-opacity:0.7;stroke:#000000;stroke-width:2" />
    <use
       xlink:href="#a"
       transform="matrix(0,-1,1,0,1688.0395,245.20238)"
       id="use4146"
       x="0"
       y="0"
       width="100%"
       height="100%" />
    <path
       d="m 1663.5,767.4 0,-76.3 75.5,0 0,76.3 z"
       id="path4148"
       inkscape:connector-curvature="0"
       style="fill:#21c9cb;fill-opacity:1;stroke:#000000;stroke-width:2" />
    <use
       xlink:href="#a"
       transform="matrix(0,-1,1,0,1706.9116,416.90476)"
       id="use4150"
       x="0"
       y="0"
       width="100%"
       height="100%" />
    <path
       d="m 1663.5,691.1 0,-76.32 75.5,0 0,76.3 z"
       id="path4152"
       inkscape:connector-curvature="0"
       style="fill:#21c9cb;fill-opacity:1;stroke:#000000;stroke-width:2" />
    <use
       xlink:href="#a"
       transform="matrix(0,-1,1,0,1706.9116,340.59259)"
       id="use4154"
       x="0"
       y="0"
       width="100%"
       height="100%" />
    <path
       d="m 1663.5,614.78 0,-76.3 75.5,0 0,76.3 z"
       id="path4156"
       inkscape:connector-curvature="0"
       style="fill:#21c9cb;fill-opacity:1;stroke:#000000;stroke-width:2" />
    <use
       xlink:href="#a"
       transform="matrix(0,-1,1,0,1706.9116,264.28042)"
       id="use4158"
       x="0"
       y="0"
       width="100%"
       height="100%" />
    <path
       d="m 606.67,424.3 72.95,0 0,52.68 -72.95,0 z"
       id="path4160"
       inkscape:connector-curvature="0"
       style="fill:none" />
    <path
       d="m 1003,424.3 72.94,0 0,52.68 -72.94,0 z"
       id="path4164"
       inkscape:connector-curvature="0"
       style="fill:none" />
    <path
       d="m 1380.43,424.44 72.95,0 0,53.3 -72.95,0 z"
       id="path4168"
       inkscape:connector-curvature="0"
       style="fill:none" />
    <path
       d="m 1647.18,424.3 72.95,0 0,52.68 -72.95,0 z"
       id="path4172"
       inkscape:connector-curvature="0"
       style="fill:none" />
    <path
       d="m 794.4,614.98 39.73,0 0,36.47 -39.73,0 z"
       id="path4176"
       inkscape:connector-curvature="0"
       style="fill:none" />
    <path
       d="m 831.43,647.47 -2.85,2.92 -14.33,-14.27 -14.32,14.26 -2.86,-2.86 14.27,-14.33 -14.27,-14.3 2.92,-2.86 14.25,14.26 14.33,-14.26 2.85,2.8 -14.26,14.37"
       id="path4178"
       inkscape:connector-curvature="0" />
    <path
       d="m 1172.84,616.27 39.72,0 0,36.47 -39.72,0 z"
       id="path4180"
       inkscape:connector-curvature="0"
       style="fill:none" />
    <path
       d="m 1209.86,648.77 -2.85,2.9 -14.32,-14.25 -14.32,14.26 -2.86,-2.85 14.27,-14.33 -14.27,-14.32 2.92,-2.85 14.26,14.26 14.33,-14.27 2.86,2.8 -14.26,14.37"
       id="path4182"
       inkscape:connector-curvature="0" />
    <path
       d="m 1468.28,616.58 39.72,0 0,36.47 -39.72,0 z"
       id="path4184"
       inkscape:connector-curvature="0"
       style="fill:none" />
    <path
       d="m 1587.3,649.07 -2.85,2.92 -14.33,-14.27 -14.32,14.28 -2.85,-2.86 14.26,-14.33 -14.25,-14.3 2.9,-2.86 14.27,14.26 14.33,-14.26 2.85,2.8 -14.26,14.37"
       id="path4186"
       inkscape:connector-curvature="0" />
    <path
       d="m 116,606.6 187.52,0 0,60.37 -187.52,0 z"
       id="path4188"
       inkscape:connector-curvature="0"
       style="fill:none" />
    <path
       d="m 394.5,617.48 42.52,0 0,25.98 -42.5,0 z"
       id="path4192"
       inkscape:connector-curvature="0"
       style="fill:none" />
    <path
       d="m 476,691 45.42,0 0,51.95 -45.42,0 z"
       id="path4196"
       inkscape:connector-curvature="0"
       style="fill:none" />
    <path
       d="m 882.08,786.77 45.42,0 0,51.95 -45.42,0 z"
       id="path4200"
       inkscape:connector-curvature="0"
       style="fill:none" />
    <path
       d="m 1221.78,767 45.42,0 0,52.56 -45.42,0 z"
       id="path4204"
       inkscape:connector-curvature="0"
       style="fill:none" />
    <path
       d="m 1626,786 45.42,0 0,51.95 -45.42,0 z"
       id="path4208"
       inkscape:connector-curvature="0"
       style="fill:none" />
    <text
       xml:space="preserve"
       style="font-style:normal;font-weight:normal;font-size:40px;line-height:125%;font-family:sans-serif;letter-spacing:0px;word-spacing:0px;fill:#000000;fill-opacity:1;stroke:none;stroke-width:1px;stroke-linecap:butt;stroke-linejoin:miter;stroke-opacity:1"
       x="122.67969"
       y="652.18896"
       id="text4218"
       sodipodi:linespacing="125%"><tspan
         sodipodi:role="line"
         x="122.67969"
         y="652.18896"
         id="tspan4302">$\tensel{A}_{2 4 2 3} =$</tspan></text>
    <text
       xml:space="preserve"
       style="font-style:normal;font-weight:normal;font-size:40px;line-height:125%;font-family:sans-serif;letter-spacing:0px;word-spacing:0px;fill:#000000;fill-opacity:1;stroke:none;stroke-width:1px;stroke-linecap:butt;stroke-linejoin:miter;stroke-opacity:1"
       x="575.30701"
       y="454.56641"
       id="text4228"
       sodipodi:linespacing="125%"><tspan
         sodipodi:role="line"
         x="575.30701"
         y="454.56641"
         id="tspan4232">$G_1$</tspan></text>
    <text
       xml:space="preserve"
       style="font-style:normal;font-weight:normal;font-size:40px;line-height:125%;font-family:sans-serif;letter-spacing:0px;word-spacing:0px;fill:#000000;fill-opacity:1;stroke:none;stroke-width:1px;stroke-linecap:butt;stroke-linejoin:miter;stroke-opacity:1"
       x="950.78741"
       y="454.56641"
       id="text4236"
       sodipodi:linespacing="125%"><tspan
         sodipodi:role="line"
         id="tspan4238"
         x="950.78741"
         y="454.56641">$G_2$</tspan></text>
    <text
       xml:space="preserve"
       style="font-style:normal;font-weight:normal;font-size:40px;line-height:125%;font-family:sans-serif;letter-spacing:0px;word-spacing:0px;fill:#000000;fill-opacity:1;stroke:none;stroke-width:1px;stroke-linecap:butt;stroke-linejoin:miter;stroke-opacity:1"
       x="1328.9764"
       y="454.56641"
       id="text4240"
       sodipodi:linespacing="125%"><tspan
         sodipodi:role="line"
         id="tspan4242"
         x="1328.9764"
         y="454.56641">$G_3$</tspan></text>
    <text
       xml:space="preserve"
       style="font-style:normal;font-weight:normal;font-size:40px;line-height:125%;font-family:sans-serif;letter-spacing:0px;word-spacing:0px;fill:#000000;fill-opacity:1;stroke:none;stroke-width:1px;stroke-linecap:butt;stroke-linejoin:miter;stroke-opacity:1"
       x="1638.882"
       y="454.56641"
       id="text4244"
       sodipodi:linespacing="125%"><tspan
         sodipodi:role="line"
         id="tspan4246"
         x="1638.882"
         y="454.56641">$G_4$</tspan></text>
    <text
       xml:space="preserve"
       style="font-style:normal;font-weight:normal;font-size:40px;line-height:125%;font-family:sans-serif;letter-spacing:0px;word-spacing:0px;fill:#000000;fill-opacity:1;stroke:none;stroke-width:1px;stroke-linecap:butt;stroke-linejoin:miter;stroke-opacity:1"
       x="910.11023"
       y="868.56641"
       id="text4248"
       sodipodi:linespacing="125%"><tspan
         sodipodi:role="line"
         id="tspan4250"
         x="910.11023"
         y="868.56641">$i_2=4$</tspan></text>
    <text
       xml:space="preserve"
       style="font-style:normal;font-weight:normal;font-size:40px;line-height:125%;font-family:sans-serif;letter-spacing:0px;word-spacing:0px;fill:#000000;fill-opacity:1;stroke:none;stroke-width:1px;stroke-linecap:butt;stroke-linejoin:miter;stroke-opacity:1"
       x="1274.0787"
       y="868.56641"
       id="text4252"
       sodipodi:linespacing="125%"><tspan
         sodipodi:role="line"
         id="tspan4254"
         x="1274.0787"
         y="868.56641">$i_3=2$</tspan></text>
    <text
       xml:space="preserve"
       style="font-style:normal;font-weight:normal;font-size:40px;line-height:125%;font-family:sans-serif;letter-spacing:0px;word-spacing:0px;fill:#000000;fill-opacity:1;stroke:none;stroke-width:1px;stroke-linecap:butt;stroke-linejoin:miter;stroke-opacity:1"
       x="1643.4961"
       y="868.56641"
       id="text4256"
       sodipodi:linespacing="125%"><tspan
         sodipodi:role="line"
         id="tspan4258"
         x="1643.4961"
         y="868.56641">$i_4=3$</tspan></text>
    <text
       xml:space="preserve"
       style="font-style:normal;font-weight:normal;font-size:40px;line-height:125%;font-family:sans-serif;letter-spacing:0px;word-spacing:0px;fill:#000000;fill-opacity:1;stroke:none;stroke-width:1px;stroke-linecap:butt;stroke-linejoin:miter;stroke-opacity:1"
       x="487.66931"
       y="768.59839"
       id="text4260"
       sodipodi:linespacing="125%"><tspan
         sodipodi:role="line"
         id="tspan4262"
         x="487.66931"
         y="768.59839">$i_1=2$</tspan></text>
    <text
       xml:space="preserve"
       style="font-style:normal;font-weight:normal;font-size:40px;line-height:125%;font-family:sans-serif;letter-spacing:0px;word-spacing:0px;fill:#000000;fill-opacity:1;stroke:none;stroke-width:1px;stroke-linecap:butt;stroke-linejoin:miter;stroke-opacity:1"
       x="121.66928"
       y="34.992126"
       id="text4306"
       sodipodi:linespacing="125%"><tspan
         sodipodi:role="line"
         id="tspan4308"
         x="121.66928"
         y="34.992126" /></text>
  </g>
  <flowRoot
     xml:space="preserve"
     id="flowRoot4990"
     style="font-style:normal;font-weight:normal;font-size:40px;line-height:125%;font-family:sans-serif;letter-spacing:0px;word-spacing:0px;fill:#000000;fill-opacity:1;stroke:none;stroke-width:1px;stroke-linecap:butt;stroke-linejoin:miter;stroke-opacity:1"
     transform="translate(307.15236,-45.992995)"><flowRegion
       id="flowRegion4992"><rect
         id="rect4994"
         width="3382.303"
         height="57.788094"
         x="295.73904"
         y="37.18161" /></flowRegion><flowPara
       id="flowPara4996">$\tensel{A}_{i_1 \ldots i_d} = \underbrace{G_1[i_1]}_{1 \times \rank} \underbrace{G_2[i_2]}_{\rank \times \rank} \ldots \underbrace{G_d[i_d]}_{\rank \times 1}$</flowPara></flowRoot>  <text
     xml:space="preserve"
     style="font-style:normal;font-weight:normal;font-size:40px;line-height:125%;font-family:sans-serif;letter-spacing:0px;word-spacing:0px;fill:#000000;fill-opacity:1;stroke:none;stroke-width:1px;stroke-linecap:butt;stroke-linejoin:miter;stroke-opacity:1"
     x="41.201389"
     y="296.93469"
     id="text4998"
     sodipodi:linespacing="125%"><tspan
       sodipodi:role="line"
       id="tspan5000"
       x="41.201389"
       y="296.93469">An example of computing one element of a $4$-dimensional tensor:</tspan></text>
</svg>
